<svg xmlns="http://www.w3.org/2000/svg" viewBox="0 0 113.54 151.1"><defs><style>.cls-1,.cls-10,.cls-4{isolation:isolate;}.cls-1{font-size:8.61px;font-family:ArialMT, Arial;}.cls-1,.cls-4{fill:#142244;}.cls-2{letter-spacing:-0.02em;}.cls-3{letter-spacing:-0.11em;}.cls-4{font-size:15.05px;}.cls-10,.cls-4{font-family:KozGoPr6N-Regular-83pv-RKSJ-H, Kozuka Gothic Pr6N;}.cls-5{letter-spacing:-0.05em;}.cls-6{letter-spacing:-0.04em;}.cls-7{letter-spacing:-0.09em;}.cls-8{letter-spacing:-0.03em;}.cls-10,.cls-9{fill:#fff;}.cls-10{font-size:9.67px;}.cls-11{fill:#1f296c;stroke:#fff;}.cls-11,.cls-12{stroke-miterlimit:10;}.cls-12{fill:none;stroke:#f7f8f8;}</style></defs><title>アセット 2</title><g id="レイヤー_2" data-name="レイヤー 2"><g id="レイヤー_1-2" data-name="レイヤー 1"><g id="レイヤー_1-2-2" data-name="レイヤー 1-2"><text class="cls-1" transform="translate(5.5 127.54) scale(1.38 1)">Match in<tspan class="cls-2" x="32.54" y="0"> </tspan><tspan x="34.78" y="0">This</tspan><tspan class="cls-2" x="51.04" y="0"> </tspan><tspan class="cls-3" x="53.28" y="0">T</tspan><tspan x="57.58" y="0">own.</tspan></text><text class="cls-4" transform="translate(0.35 146) scale(1.08 1)"><tspan class="cls-5">し</tspan><tspan class="cls-6" x="14.3" y="0">た</tspan><tspan class="cls-7" x="28.75" y="0">ま</tspan><tspan class="cls-8" x="42.44" y="0">ち</tspan><tspan x="57.04" y="0">仕事舎</tspan></text><path class="cls-9" d="M34,83.79c.24,2.21-1.13,3.54-2.76,3.28-.9-.14-1.78-.38-2.66-.56a3.23,3.23,0,0,1-1.9-4.8,2.36,2.36,0,0,1,1.46-.87,23.55,23.55,0,0,1,3.36,0,1.12,1.12,0,0,1,.8.3C33,82.15,33.58,83.2,34,83.79Z"/><text class="cls-10" transform="matrix(-2.25, 0.13, -0.06, -1, 86.71, 28.88)">人</text><text class="cls-10" transform="matrix(-2.25, 0.13, -0.06, -1, 70.18, 29.84)">人</text><text class="cls-10" transform="matrix(-2.25, 0.13, -0.06, -1, 53.19, 30.83)">人</text><text class="cls-10" transform="matrix(-2.25, 0.13, -0.06, -1, 86.66, 12.53)">人</text><text class="cls-10" transform="matrix(-2.25, 0.13, -0.06, -1, 66.21, 46.6)">人</text><text class="cls-10" transform="matrix(-2.25, 0.13, -0.06, -1, 49.68, 47.56)">人</text><text class="cls-10" transform="matrix(-2.25, 0.13, -0.06, -1, 32.69, 48.55)">人</text><circle class="cls-11" cx="56.77" cy="56.77" r="56.27"/><path class="cls-11" d="M58.83,109.24A51.88,51.88,0,0,0,90,17.86c-.36.08-.52.15-.88.21a6,6,0,0,0-2.27.81C84,20.87,81.21,23,78.41,25c-.74.54-.68,1-.08,1.54l2.82-1.11c.8.72.51,2,2,2.28a8.49,8.49,0,0,1,7.21,9.62v.09c-.18,1.57-.42,3.13-.66,4.93-2.19.78-4.7,1.7-7.24,2.53a1.17,1.17,0,0,1-1-.52,3.56,3.56,0,0,0-2-1.83c-4.13-1.85-6.44-6.77-5-10.6.49-1.25,1.42-2.38.07-3.69a18.6,18.6,0,0,0,2-.87c.28-.17.42-.58.63-.87a2.85,2.85,0,0,0-1.09.09C71.64,29,67.31,31.37,63,33.71c-1,.51-1.14,1-.56,2,.51-.11,1-.2,1.58-.35a1.65,1.65,0,0,1,2.2.81,1.08,1.08,0,0,1,.08.19,3,3,0,0,0,1.55,1.19c3.55,1.48,4.89,4,4,7.78-.16.67-.45,1.3-.62,2s-.34,1.68-.58,2.86L64.77,53.1c-.7-2-.7-2-2.74-3-3.88-1.73-5.17-5.51-3.14-9.5.52-1,.9-1.91,0-3,.65-.35,1.16-.66,1.7-.9,1.08-.48,1-1.1.48-1.66-4.44,1.83-8.74,3.59-13,5.4a1,1,0,0,0-.43.82,1,1,0,0,0,.81.49c1-.2,2-.52,2.78-.75.58.79.92,1.81,1.56,2,4.51,1.64,5.16,6,3.37,9.46-.56,1.08-1.26,2.07-.34,3.43l-7.19,2c-.14-1.16-.36-1.94-1.47-2.46-3.92-1.86-4.62-3.71-3.24-7.82,0-.2,0-.41.06-.61.64-1.26,1.11-2.53.21-4l2.29-.78c-.1-1.35-.15-1.36-1.36-1.11-4.44.92-8.87,1.83-13.32,2.7-1.4.28-1.5.4-1,2l2.83-.57c.56.67.91,1.49,1.52,1.78,3.53,1.69,4.52,4.2,2.78,7.68-.62,1.25-1.39,2.39-.41,3.89l-6.55,2A10.12,10.12,0,0,0,30,59a16.1,16.1,0,0,0-1.51-1.22c-2.62-2.29-3-4-1.72-7.23.49-1.19,1.52-2.29.34-3.69.76-.21,1.29-.39,1.84-.49.73-.14,1-.46.85-1.25s-.55-.89-1.29-.85c-4.43.27-8.86.47-13.3.7a6.7,6.7,0,0,0-1,.15v.43l2.85.33c-.19,1.3.61,1.84,1.52,2.45,2.79,1.85,3.37,4.15,1.89,7.15a13.74,13.74,0,0,1-1.28,1.93c-.77,1.07-1.55,2.13-2.55,3.5L8.9,60c.44-1.63-.42-2.68-1.16-3.86A6.42,6.42,0,0,1,9,47.69a15,15,0,0,0,1.7-1.77l-.22-.29,2.77-.14v-.42c-2.45-.24-5.11-.47-7.64-.72A52.06,52.06,0,0,0,4.27,59.89a52,52,0,0,0,54.52,49.35Z"/><path class="cls-11" d="M22,25.25v.31l-2,.1.17.21A12.3,12.3,0,0,1,19,27.14a4.63,4.63,0,0,0-.92,6.14c.54.85,1.15,1.61.83,2.78l5.56.66c.72-1,1.28-1.74,1.83-2.51a10.9,10.9,0,0,0,.92-1.4c1.07-2.16.65-3.81-1.36-5.14-.65-.44-1.23-.83-1.09-1.77l-2.05-.23v-.31a5.84,5.84,0,0,1,.73-.11c3.19-.17,6.39-.31,9.58-.51.53,0,.8.06.92.62s-.08.8-.61.89a11.86,11.86,0,0,0-1.32.36c.84,1,.11,1.8-.25,2.66-1,2.29-.65,3.55,1.24,5.2a13.1,13.1,0,0,1,1.09.88,7.39,7.39,0,0,1,.71,1.18l4.72-1.47c-.71-1.08-.16-1.9.29-2.8,1.26-2.51.54-4.31-2-5.53-.44-.21-.69-.8-1.1-1.28l-2,.41c-.36-1.16-.28-1.25.73-1.45,3.2-.63,6.39-1.27,9.58-1.94.87-.18.91-.17,1,.8l-1.65.56a2.63,2.63,0,0,1-.14,2.84,3.29,3.29,0,0,0-.16.44c-1,3-.5,4.29,2.33,5.63a1.84,1.84,0,0,1,1,1.78l5.18-1.41c-.66-1-.15-1.69.25-2.47,1.29-2.52.82-5.63-2.43-6.81-.45-.17-.7-.9-1.12-1.47-.57.16-1.28.4-2,.54a.7.7,0,0,1-.58-.35A.69.69,0,0,1,47,22c3.08-1.29,6.18-2.56,9.38-3.88.37.41.43.85-.35,1.19-.39.18-.76.4-1.22.65.66.76.4,1.39,0,2.13-1.47,2.88-.53,5.6,2.26,6.84,1.47.66,1.47.66,2,2.13L63.27,29c.17-.85.27-1.46.42-2.06s.33-.94.44-1.42c.66-2.69-.3-4.53-2.86-5.6a2.19,2.19,0,0,1-1.1-.89,1.2,1.2,0,0,0-1.49-.78l-.15.06c-.38.11-.77.17-1.14.25-.41-.7-.29-1.08.41-1.45C61,15.4,64.07,13.66,67.21,12a2,2,0,0,1,.78-.06c-.15.21-.25.5-.45.62a12.16,12.16,0,0,1-1.43.63c1,.94.3,1.76,0,2.66-1.07,2.76.58,6.3,3.56,7.63a2.56,2.56,0,0,1,1.46,1.32.88.88,0,0,0,.75.37c1.82-.6,3.63-1.26,5.2-1.82.18-1.3.35-2.42.48-3.55a6.12,6.12,0,0,0-5.11-7h-.07c-1-.17-.84-1.12-1.42-1.64l-2,.8c-.43-.41-.48-.73,0-1.11Q70.85,9.42,72.73,8A51.68,51.68,0,0,0,54,5.33c-9.84,1.81-20.62,5.16-28.11,9.6C23,17,20.61,19.61,17.9,22c-.56.89-1.56,1.56-2.13,2.45C15.77,24.43,21.06,25.21,22,25.25Z"/><path class="cls-11" d="M82.91,27.71c-1.45-.23-1.16-1.56-2-2.28L78.1,26.54c-.61-.57-.67-1,.07-1.54,2.8-2,5.54-4.12,8.37-6.11a6,6,0,0,1,2.27-.81c.36-.06.72-.14,1.08-.22A52.33,52.33,0,0,0,72.69,8c-1.27.93-2.52,1.87-3.79,2.78-.54.39-.49.7-.06,1.11l2-.8c.59.52.37,1.48,1.42,1.64a6.14,6.14,0,0,1,5.2,6.94v.06c-.13,1.13-.31,2.26-.48,3.55-1.58.56-3.39,1.23-5.21,1.83a.87.87,0,0,1-.75-.38,2.56,2.56,0,0,0-1.46-1.32c-3-1.33-4.63-4.87-3.56-7.63.35-.9,1-1.71,0-2.66a12.16,12.16,0,0,0,1.43-.63c.2-.12.31-.41.46-.62a1.7,1.7,0,0,0-.79.07c-3.14,1.7-6.26,3.45-9.41,5.13-.69.37-.82.74-.41,1.45.37-.08.76-.15,1.14-.26a1.19,1.19,0,0,1,1.58.57l.06.15a2.16,2.16,0,0,0,1.12.85c2.56,1.07,3.52,2.91,2.87,5.6-.12.49-.33.94-.45,1.43s-.25,1.2-.42,2.05L59,31c-.5-1.48-.5-1.48-2-2.13-2.79-1.25-3.72-4-2.26-6.85.38-.74.65-1.37,0-2.13.46-.24.83-.47,1.22-.64.78-.35.72-.79.35-1.2-3.2,1.32-6.3,2.59-9.38,3.89a.67.67,0,0,0-.31.59.7.7,0,0,0,.58.35c.72-.14,1.43-.37,2-.54.42.57.67,1.31,1.12,1.47,3.25,1.19,3.72,4.3,2.43,6.81-.4.78-.91,1.5-.24,2.47L47.31,34.5a1.87,1.87,0,0,0-1.06-1.78C43.48,31.41,43,30.07,44,27.11a3.16,3.16,0,0,1,.16-.43,2.65,2.65,0,0,0,.15-2.85l1.64-.56c-.07-1-.1-1-1-.8-3.2.66-6.39,1.32-9.59,2-1,.2-1.09.28-.73,1.44l2-.41c.4.49.66,1.07,1.09,1.28,2.54,1.22,3.26,3,2,5.53-.46.9-1,1.72-.3,2.81l-4.72,1.46A7.86,7.86,0,0,0,34,35.4a10.89,10.89,0,0,0-1-.93c-1.88-1.64-2.19-2.91-1.24-5.2.36-.86,1.09-1.65.25-2.66.55-.15.93-.28,1.32-.35a.7.7,0,0,0,.62-.9c-.12-.57-.4-.65-.93-.61-3.19.19-6.38.34-9.58.5a4.6,4.6,0,0,0-.73.11v.31l2,.24c-.14.93.44,1.32,1.09,1.76,2,1.33,2.43,3,1.37,5.15a9.91,9.91,0,0,1-.93,1.39c-.55.77-1.11,1.53-1.83,2.52l-5.56-.66c.32-1.18-.29-1.94-.83-2.78a4.63,4.63,0,0,1,1-6.14,11.46,11.46,0,0,0,1.23-1.28L20,25.66l2-.1v-.3c-1.77-.18-4.46-.65-6.28-.83A23.63,23.63,0,0,0,17.85,22,52,52,0,0,0,5.63,44.35l7.44.73v.42l-2.77.14.22.29a15,15,0,0,1-1.7,1.77,6.42,6.42,0,0,0-1.28,8.53c.74,1.18,1.6,2.23,1.16,3.86l7.71.92c1-1.37,1.78-2.43,2.55-3.5a13.74,13.74,0,0,0,1.28-1.93c1.49-3,.9-5.3-1.89-7.15-.91-.61-1.71-1.15-1.51-2.45L14,45.65v-.43c.34,0,.67-.13,1-.15,4.43-.23,8.86-.44,13.3-.7.73,0,1.11.08,1.28.85s-.11,1.11-.85,1.25c-.54.1-1.08.28-1.84.49,1.18,1.4.16,2.5-.34,3.69-1.32,3.18-.9,4.94,1.72,7.23a14.64,14.64,0,0,1,1.51,1.22,10.12,10.12,0,0,1,1,1.64l6.55-2c-1-1.5-.21-2.64.41-3.89,1.75-3.48.75-6-2.78-7.68-.61-.29-1-1.11-1.52-1.78L30.59,46c-.49-1.61-.39-1.73,1-2,4.49-1,8.92-1.83,13.39-2.75,1.21-.25,1.26-.24,1.36,1.11L44,43.1c.9,1.42.43,2.69-.21,3.95a4.44,4.44,0,0,0-.22.61c-1.38,4.11-.68,6,3.24,7.82,1.11.52,1.33,1.3,1.47,2.46L55.49,56c-.92-1.36-.22-2.35.34-3.43,1.79-3.49,1.14-7.82-3.37-9.46-.63-.23-1-1.25-1.56-2-.8.23-1.77.55-2.78.75a1,1,0,0,1-.81-.49,1,1,0,0,1,.43-.82c4.29-1.81,8.59-3.57,13-5.4.52.56.6,1.18-.48,1.66-.54.24-1,.55-1.69.9.92,1,.55,1.92,0,3-2,4-.74,7.77,3.14,9.5,2,.91,2,.91,2.74,3l5.86-2.91c.24-1.18.38-2,.58-2.86.17-.67.46-1.3.62-2,.91-3.74-.43-6.3-4-7.78A3,3,0,0,1,66,36.47a1.67,1.67,0,0,0-2.09-1.08l-.19.08c-.53.15-1.07.24-1.58.35-.58-1-.4-1.5.56-2,4.38-2.34,8.71-4.76,13.08-7.13a2.82,2.82,0,0,1,1.08-.09c-.2.29-.35.7-.63.87a18.6,18.6,0,0,1-2,.87c1.35,1.31.42,2.44-.07,3.69-1.48,3.83.82,8.75,5,10.6a3.56,3.56,0,0,1,2,1.83,1.17,1.17,0,0,0,1,.52c2.54-.83,5-1.75,7.24-2.53.24-1.8.49-3.36.67-4.93a8.51,8.51,0,0,0-7-9.79Z"/><path class="cls-9" d="M20.18,53c.35,2.2-.95,3.59-2.6,3.42-.9-.1-1.78-.29-2.68-.44a3.21,3.21,0,0,1-2.46-3.83,3,3,0,0,1,.32-.86,2.32,2.32,0,0,1,1.42-.94,23.57,23.57,0,0,1,3.36-.18,1.15,1.15,0,0,1,.81.26C19.1,51.43,19.78,52.45,20.18,53Z"/><path class="cls-9" d="M38.07,52.36c.35,2.2-1,3.59-2.6,3.42-.9-.1-1.78-.29-2.68-.43a3.22,3.22,0,0,1-2.14-4.7,2.34,2.34,0,0,1,1.42-.94,23.57,23.57,0,0,1,3.36-.18,1.15,1.15,0,0,1,.81.26C37,50.77,37.67,51.8,38.07,52.36Z"/><path class="cls-9" d="M85.64,38.06c-.42.07-.85.15-1.27.2a3.14,3.14,0,0,1-3.78-2.07c-.54-1.2-2.39-3.27-1.39-4.09a22.73,22.73,0,0,1,3.37-.73c1-.19,2-.33,3.06-.49a4.33,4.33,0,0,1,4,2.29,3.2,3.2,0,0,1-.78,4A8,8,0,0,1,85.64,38.06Z"/><path class="cls-9" d="M56.4,49a2.85,2.85,0,0,1-2.54,3.14,2.36,2.36,0,0,1-.37,0L50.79,52a2.65,2.65,0,0,1-2.57-2.73,2.2,2.2,0,0,1,.05-.44A7.35,7.35,0,0,1,50,45.64c.45-.47,1.59-.32,2.42-.35s1.65-.15,2.1,1a12.37,12.37,0,0,0,1.69,2.25A1.25,1.25,0,0,1,56.4,49Z"/><path class="cls-9" d="M72.37,43a2.85,2.85,0,0,1-2.53,3.14h-.38c-.9-.07-1.81-.13-2.71-.21a2.64,2.64,0,0,1-2.56-2.72,2.2,2.2,0,0,1,0-.44A7.4,7.4,0,0,1,66,39.56c.46-.46,1.6-.32,2.43-.35s1.65-.15,2.1,1a11.88,11.88,0,0,0,1.68,2.25A1.33,1.33,0,0,1,72.37,43Z"/><line class="cls-12" x1="7.49" y1="97.95" x2="7.49" y2="97.95"/><path class="cls-9" d="M105.41,73.23H72.09a.89.89,0,0,1-.89-.89V72a.89.89,0,0,1,.89-.89H105.9c.48,0,.39.4.39.89l-.53.4C105.76,72.87,105.9,73.23,105.41,73.23Z"/><path class="cls-9" d="M100.62,84.4H63.12a.89.89,0,0,1-.89-.89v-.36a.89.89,0,0,1,.89-.89H101.5c.49,0,0,.4,0,.89v.36A.89.89,0,0,1,100.62,84.4Z"/><path class="cls-9" d="M92.78,94.65H55.28a.9.9,0,0,1-.88-.88V93.4a.9.9,0,0,1,.88-.88H93.67c.49,0,0,.4,0,.88l-.38.35C93.29,94.24,93.27,94.65,92.78,94.65Z"/></g></g></g></svg>